<?xml version="1.0" encoding="UTF-8" standalone="no"?>
<!DOCTYPE svg PUBLIC "-//W3C//DTD SVG 1.1//EN" "http://www.w3.org/Graphics/SVG/1.1/DTD/svg11.dtd">
<svg width="100%" height="100%" viewBox="0 0 185 184" version="1.1" xmlns="http://www.w3.org/2000/svg" xmlns:xlink="http://www.w3.org/1999/xlink" xml:space="preserve" xmlns:serif="http://www.serif.com/" style="fill-rule:evenodd;clip-rule:evenodd;stroke-linejoin:round;stroke-miterlimit:2;">
    <g transform="matrix(1,0,0,1,-407.971,-208.075)">
        <g transform="matrix(1.4512,0,0,1.4512,500.514,299.382)">
            <g transform="matrix(1,0,0,1,-129.6,-129.6)">
                <g id="Camada_x0020_1">
                    <path d="M96.009,70.502L163.205,70.502C170.225,70.502 176.599,73.372 181.213,77.987C185.828,82.601 188.698,88.975 188.698,95.995L188.698,163.191C188.698,170.211 185.828,176.585 181.213,181.199C176.599,185.814 170.211,188.684 163.205,188.684L96.009,188.684C88.989,188.684 82.615,185.814 78.001,181.199C73.386,176.585 70.516,170.197 70.516,163.191L70.516,95.995C70.516,88.975 73.386,82.601 78.001,77.987C82.615,73.372 89.003,70.502 96.009,70.502ZM165.554,86.878C167.426,86.878 169.114,87.624 170.338,88.862C171.562,90.086 172.322,91.774 172.322,93.646C172.322,95.503 171.562,97.191 170.338,98.415C170.282,98.472 170.225,98.514 170.169,98.57C168.959,99.71 167.341,100.399 165.554,100.399C163.697,100.399 162.009,99.653 160.785,98.415L160.771,98.401C159.547,97.177 158.787,95.503 158.787,93.646C158.787,91.789 159.547,90.1 160.771,88.876L160.771,88.862C161.995,87.638 163.683,86.878 165.554,86.878ZM166.933,92.253C166.581,91.901 166.089,91.676 165.554,91.676C165.02,91.676 164.527,91.901 164.175,92.253C163.824,92.605 163.613,93.097 163.613,93.646C163.613,94.18 163.824,94.673 164.175,95.025C164.527,95.39 165.02,95.601 165.568,95.601C166.075,95.601 166.525,95.418 166.877,95.109L166.961,95.025C167.313,94.673 167.538,94.18 167.538,93.646C167.538,93.097 167.313,92.619 166.961,92.253L166.933,92.253ZM129.607,96.699C138.696,96.699 146.912,100.385 152.864,106.336C158.815,112.288 162.501,120.518 162.501,129.593C162.501,138.682 158.815,146.898 152.864,152.85C146.912,158.801 138.682,162.487 129.607,162.487C120.518,162.487 112.302,158.801 106.35,152.85C100.399,146.898 96.713,138.668 96.713,129.593C96.713,120.504 100.399,112.288 106.35,106.336C112.302,100.385 120.532,96.699 129.607,96.699ZM149.473,109.727C144.394,104.648 137.359,101.496 129.607,101.496C121.855,101.496 114.82,104.634 109.741,109.727C104.662,114.806 101.511,121.841 101.511,129.593C101.511,137.345 104.648,144.38 109.741,149.459C114.82,154.538 121.855,157.689 129.607,157.689C137.359,157.689 144.394,154.538 149.473,149.459C154.552,144.38 157.704,137.345 157.704,129.593C157.704,121.841 154.552,114.806 149.473,109.727ZM163.205,75.299L96.009,75.299C90.325,75.299 85.148,77.635 81.391,81.377C77.635,85.134 75.313,90.311 75.313,95.995L75.313,163.191C75.313,168.875 77.649,174.052 81.391,177.809C85.148,181.565 90.325,183.887 96.009,183.887L163.205,183.887C168.889,183.887 174.066,181.551 177.823,177.809C181.579,174.052 183.901,168.875 183.901,163.191L183.901,95.995C183.901,90.311 181.565,85.12 177.823,81.377C174.066,77.621 168.889,75.299 163.205,75.299Z" style="fill:rgb(241,233,218);fill-rule:nonzero;stroke:rgb(241,233,218);stroke-width:3.5px;"/>
                </g>
            </g>
        </g>
    </g>
</svg>
