<?xml version="1.0" encoding="UTF-8" standalone="no"?>
<!DOCTYPE svg PUBLIC "-//W3C//DTD SVG 1.1//EN" "http://www.w3.org/Graphics/SVG/1.1/DTD/svg11.dtd">
<svg width="100%" height="100%" viewBox="0 0 199 172" version="1.1" xmlns="http://www.w3.org/2000/svg" xmlns:xlink="http://www.w3.org/1999/xlink" xml:space="preserve" xmlns:serif="http://www.serif.com/" style="fill-rule:evenodd;clip-rule:evenodd;stroke-linejoin:round;stroke-miterlimit:2;">
    <g transform="matrix(1,0,0,1,-201.816,-214.366)">
        <g transform="matrix(1.33486,0,0,1.33486,300.452,299.316)">
            <g transform="matrix(1,0,0,1,-129.6,-129.6)">
                <g id="Layer_x0020_1">
                    <g id="_2744591229984">
                        <path d="M129.231,112.45L115.285,112.45C115.115,112.45 114.945,112.45 114.803,112.422C105.307,111.288 96.605,107.717 89.348,103.465C80.844,98.504 74.183,92.324 70.356,88.072C69.874,90.454 69.732,93.572 70.214,97.087C70.809,101.565 72.454,106.639 75.713,111.713C75.855,111.969 75.969,112.139 76.082,112.28C76.45,112.762 76.706,113.102 76.876,113.754C77.499,116.164 76.706,116.872 73.814,117.638L73.701,117.666C72.312,118.006 70.668,118.148 68.995,118.035L68.797,118.035C69.704,121.039 71.15,124.101 73.077,127.077C75.855,131.357 79.625,135.468 84.161,139.096L84.217,139.153C84.359,139.238 84.501,139.351 84.614,139.436C85.323,139.946 85.776,140.258 86.031,141.307C86.627,143.773 85.72,144.227 83.225,144.85C81.553,145.247 79.909,145.446 78.406,145.446L78.208,145.446C79.2,147.033 80.731,148.819 82.545,150.633C87.449,155.537 94.082,160.214 97.739,162.17L98.249,162.425C99.581,163.077 100.261,163.389 100.261,165.146L100.261,165.175C100.233,166.62 99.694,167.017 98.561,167.839L98.05,168.208C92.069,172.658 85.181,174.983 78.661,176.173C76.422,176.598 74.239,176.854 72.17,177.052C78.491,179.802 84.869,181.757 91.191,182.948C107.235,185.924 122.91,183.969 136.602,177.647C150.293,171.326 162.028,160.668 170.164,146.268C174.869,137.934 178.384,128.324 180.397,117.581C183.203,102.472 183.969,101.65 190.148,94.932L191.622,93.345L187.569,93.345C186.123,93.345 184.932,92.154 184.932,90.68C184.932,90.17 185.074,89.688 185.329,89.291L189.723,82.346C185.953,82.913 182.976,83.14 180.539,83.112C176.655,83.083 174.132,82.431 172.261,81.439C172.063,81.326 171.893,81.184 171.723,81.043C166.28,76.989 160.724,75.061 155.565,74.891C150.746,74.721 146.239,76.082 142.469,78.576C138.699,81.099 135.666,84.756 133.795,89.235C131.669,94.337 131.074,100.488 132.605,107.121L132.605,107.235C132.661,107.433 132.775,107.773 132.831,108.057L132.86,108.17C133.228,109.559 133.398,110.296 132.378,111.458C131.443,112.535 130.706,112.507 129.231,112.45ZM115.398,107.15L127.191,107.15C125.745,99.808 126.51,92.976 128.92,87.222C131.187,81.751 134.901,77.272 139.55,74.183C144.198,71.093 149.783,69.42 155.735,69.619C161.915,69.817 168.52,72.057 174.869,76.819C176.06,77.414 177.789,77.811 180.567,77.839C183.77,77.868 188.249,77.357 194.655,76.11L194.655,76.139C195.279,75.997 195.959,76.11 196.554,76.479C197.802,77.272 198.17,78.888 197.376,80.135L192.359,88.072L197.32,88.072C197.972,88.044 198.652,88.243 199.191,88.696C200.296,89.66 200.409,91.332 199.474,92.438C197.235,95.046 195.477,96.973 194.031,98.532C188.759,104.258 188.135,104.939 185.584,118.545C183.487,129.855 179.745,140.003 174.756,148.847C166.054,164.268 153.496,175.691 138.813,182.438C124.157,189.213 107.376,191.339 90.227,188.135C80.391,186.293 70.441,182.693 60.69,177.222C59.754,176.825 59.102,175.89 59.102,174.813C59.102,173.339 60.293,172.148 61.739,172.148C66.047,172.148 71.802,172.063 77.726,170.986C82.8,170.05 88.072,168.378 92.806,165.402C88.724,162.85 83.112,158.683 78.803,154.346C74.891,150.435 71.943,146.239 71.773,142.611C71.745,142.328 71.773,142.016 71.858,141.704C72.227,140.287 73.672,139.436 75.061,139.805C75.657,139.975 76.422,140.088 77.272,140.145C73.871,136.97 70.951,133.512 68.655,129.969C65.48,125.065 63.439,119.962 62.702,114.973C62.646,114.548 62.674,114.066 62.844,113.613C63.383,112.28 64.942,111.6 66.274,112.139C67.181,112.507 68.23,112.706 69.307,112.762C69.591,112.762 69.874,112.791 70.157,112.791C67.153,107.575 65.594,102.416 64.97,97.795C64.035,90.85 65.254,84.954 67.011,81.865C67.436,81.043 68.258,80.476 69.222,80.391C70.696,80.306 71.943,81.411 72.028,82.885C72.085,83.622 79.88,91.843 91.984,98.901C98.731,102.813 106.724,106.129 115.398,107.15Z" style="fill:rgb(241,233,218);fill-rule:nonzero;stroke:rgb(241,233,218);stroke-width:3.5px;"/>
                    </g>
                </g>
            </g>
        </g>
    </g>
</svg>
