<?xml version="1.0" encoding="UTF-8" standalone="no"?>
<!DOCTYPE svg PUBLIC "-//W3C//DTD SVG 1.1//EN" "http://www.w3.org/Graphics/SVG/1.1/DTD/svg11.dtd">
<svg width="100%" height="100%" viewBox="0 0 534 534" version="1.1" xmlns="http://www.w3.org/2000/svg" xmlns:xlink="http://www.w3.org/1999/xlink" xml:space="preserve" xmlns:serif="http://www.serif.com/" style="fill-rule:evenodd;clip-rule:evenodd;stroke-linejoin:round;stroke-miterlimit:2;">
    <g id="Layer-1" transform="matrix(2.66667,0,0,2.66667,0,0)">
        <path d="M100,0C44.772,0 0,44.772 0,100C0,155.228 44.772,200 100,200C155.228,200 200,155.228 200,100C200,44.772 155.228,0 100,0ZM100,25C141.421,25 175,58.579 175,100C175,141.421 141.421,175 100,175C58.579,175 25,141.421 25,100C25,58.579 58.579,25 100,25Z" style="fill:rgb(55,55,55);"/>
        <path d="M100,25C58.579,25 25,58.579 25,100C25,141.421 58.579,175 100,175C141.421,175 175,141.421 175,100C175,58.579 141.421,25 100,25ZM100,34C136.451,34 166,63.549 166,100C166,136.451 136.451,166 100,166C63.549,166 34,136.451 34,100C34,63.549 63.549,34 100,34Z" style="fill:url(#_Radial1);"/>
        <path d="M106.469,48.219L100.219,65.375L97.813,69.781L94.406,65.969L84.938,50.125L81.406,49.344L93.281,70.594C93.281,70.594 92.63,74.79 92.031,78.094C91.433,81.398 89.563,82.375 89.563,82.375C89.563,82.375 88.127,83.453 84.969,82.313C81.951,81.223 78.513,79.908 78.188,79.781L65.375,60.969L63.469,62.813L73.063,78.313L75.188,82.906L69.969,83.25L50.906,80.813L50.344,83.469L72.875,87.031C72.908,87.067 75.728,90.123 77.938,92.625C80.019,94.982 79.846,96.986 79.813,97.25C79.693,98.045 79.276,99.918 77,101.406C74.232,103.217 70.824,105.25 70.719,105.312L47.719,103.875L47.563,106.5L66.625,108.406L71.438,109.656L68.594,113.875L55.031,127.188L56.656,129.438L73.531,113.844C73.667,113.832 77.738,113.477 81.031,113.219C84.379,112.956 85.813,114.5 85.813,114.5C85.813,114.5 87.205,115.624 86.906,118.969C86.608,122.313 86.125,126.531 86.125,126.531L71.313,144.219L73.719,145.688L86.313,131.406L89.906,128.188L91.906,133L94.844,151.969L97.125,152.531L94.563,129.5C94.563,129.5 96.82,125.947 98.688,123.156C100.555,120.366 103.219,120.188 103.219,120.188C103.219,120.188 105.334,119.754 107.938,121.875C110.541,123.996 113.75,126.75 113.75,126.75L119,149.625L121.781,148.406L117.75,129.562L117.75,124.5L122.438,126.125L138.656,135L140.312,132.844L121.094,121.469C121.094,121.469 117.587,118.945 116.656,115.719C115.726,112.492 117.656,110.437 117.656,110.438C117.656,110.437 118.652,108.476 121.938,107.781C125.196,107.092 129.246,106.356 129.312,106.344L149.344,116.5L150.125,113.969L134.156,105.125L130.531,101.812L134.469,99.313L151.594,92.406L150.969,89.75L130.344,97.344C128.783,97.673 125.236,98.31 122.75,97.25C120.205,96.164 119.536,94.633 119.312,94.031C119.205,93.808 118.149,91.565 119.875,88.875C121.625,86.147 124.072,83.039 124.25,82.813L145.312,74.406L143.938,72.125L126.688,78.156L121.75,79.281L121.719,79.25L122.562,74.031L129.562,55.469L127.094,53.875L118.219,76.125C118.219,76.125 114.885,78.61 111.938,80.219C108.99,81.827 107.594,81.156 107.594,81.156C107.594,81.156 105.562,80.373 104.5,77.188C103.452,74.044 102.25,70.166 102.219,70.063L109.094,48.594L106.469,48.219Z" style="fill:url(#_Radial2);"/>
        <path d="M100,34C63.549,34 34,63.549 34,100C34,136.451 63.549,166 100,166C136.451,166 166,136.451 166,100C166,63.549 136.451,34 100,34ZM100,48C128.719,48 152,71.281 152,100C152,128.719 128.719,152 100,152C71.281,152 48,128.719 48,100C48,71.281 71.281,48 100,48Z" style="fill:url(#_Radial3);"/>
        <path d="M90,100C90,94.477 94.477,90 100,90C105.523,90 110,94.477 110,100C110,105.523 105.523,110 100,110C94.477,110 90,105.523 90,100Z" style="fill:rgb(166,166,166);"/>
    </g>
    <g id="Layer-3" transform="matrix(2.66667,0,0,2.66667,0,0)">
        <path d="M70.953,10.706C32.987,21.365 5.75,57.435 5.75,99.156C5.75,131.06 21.603,160.402 46.248,176.607C46.605,175.865 48.207,172.431 48.406,172.094C25.899,157.05 10.813,130.474 10.813,100C10.813,59.859 36.817,25.451 71.769,16.461C71.426,15.442 70.753,11.499 70.953,10.706Z" style="fill:rgb(255,212,0);"/>
        <path d="M126.406,190.344C165.085,178.617 193.27,142.508 192.772,98.44C192.391,64.741 174.967,35.415 149.584,18.603C149.227,19.39 146.892,22.943 146.692,23.301C169.877,38.914 187.224,65.423 187.587,97.611C188.067,140.01 161.666,174.442 126.048,184.369C126.411,185.441 126.601,189.503 126.406,190.344Z" style="fill:rgb(255,212,0);"/>
    </g>
    <defs>
        <radialGradient id="_Radial1" cx="0" cy="0" r="1" gradientUnits="userSpaceOnUse" gradientTransform="matrix(75,0,0,75,100,100)"><stop offset="0" style="stop-color:black;stop-opacity:1"/><stop offset="0.75" style="stop-color:black;stop-opacity:1"/><stop offset="1" style="stop-color:rgb(166,166,166);stop-opacity:1"/></radialGradient>
        <radialGradient id="_Radial2" cx="0" cy="0" r="1" gradientUnits="userSpaceOnUse" gradientTransform="matrix(52.0156,0,0,52.0156,99.5781,100.375)"><stop offset="0" style="stop-color:rgb(140,136,121);stop-opacity:1"/><stop offset="0.98" style="stop-color:rgb(86,83,73);stop-opacity:1"/><stop offset="1" style="stop-color:rgb(86,83,73);stop-opacity:1"/></radialGradient>
        <radialGradient id="_Radial3" cx="0" cy="0" r="1" gradientUnits="userSpaceOnUse" gradientTransform="matrix(66,0,0,66,100,100)"><stop offset="0" style="stop-color:rgb(52,52,52);stop-opacity:1"/><stop offset="0.75" style="stop-color:rgb(52,52,52);stop-opacity:1"/><stop offset="1" style="stop-color:rgb(125,125,125);stop-opacity:1"/></radialGradient>
    </defs>
</svg>
